<svg xmlns="http://www.w3.org/2000/svg" xmlns:xlink="http://www.w3.org/1999/xlink" width="500" zoomAndPan="magnify" viewBox="0 0 375 374.999991" height="500" preserveAspectRatio="xMidYMid meet" version="1.0"><defs><g/><clipPath id="0a72c6ee4c"><path d="M 89.058594 26.300781 L 286 26.300781 L 286 260.300781 L 89.058594 260.300781 Z M 89.058594 26.300781 " clip-rule="nonzero"/></clipPath></defs><rect x="-37.5" width="450" fill="#ffffff" y="-37.499999" height="449.999989" fill-opacity="1"/><rect x="-37.5" width="450" fill="#004aad" y="-37.499999" height="449.999989" fill-opacity="1"/><g clip-path="url(#0a72c6ee4c)"><path fill="#ffffff" d="M 120.828125 88.289062 L 120.828125 246.625 L 223.953125 246.625 C 237.496094 246.625 249.476562 241.414062 258.328125 232.5625 C 266.664062 223.707031 272.390625 211.726562 272.390625 198.1875 C 272.390625 185.164062 266.664062 173.1875 258.328125 164.332031 C 251.039062 157.039062 241.664062 152.351562 230.726562 150.789062 L 230.726562 205.476562 L 161.976562 205.476562 L 161.976562 78.394531 L 166.140625 76.832031 L 168.746094 75.789062 L 171.351562 76.832031 L 175.515625 78.394531 L 175.515625 73.707031 L 175.515625 191.414062 L 217.183594 191.414062 L 217.183594 88.289062 L 168.746094 67.457031 Z M 230.726562 94.019531 L 230.726562 136.207031 C 241.664062 134.644531 251.039062 129.4375 258.328125 122.144531 C 266.664062 113.8125 272.390625 101.3125 272.390625 88.289062 C 272.390625 74.75 266.664062 62.769531 258.328125 53.914062 C 249.476562 45.582031 237.496094 39.851562 223.953125 39.851562 L 175.515625 39.851562 L 175.515625 52.875 L 168.746094 49.75 L 161.976562 52.875 L 161.976562 26.3125 L 223.953125 26.3125 C 241.140625 26.3125 256.765625 33.082031 267.703125 44.539062 C 279.164062 55.476562 285.933594 71.101562 285.933594 88.289062 C 285.933594 105.476562 279.164062 120.582031 267.703125 132.039062 C 263.015625 136.726562 257.808594 140.375 252.078125 143.5 C 257.808594 146.101562 263.015625 150.269531 267.703125 154.4375 C 279.164062 165.894531 285.933594 181.519531 285.933594 198.1875 C 285.933594 215.375 279.164062 231 267.703125 241.9375 C 256.765625 253.394531 241.140625 260.164062 223.953125 260.164062 L 106.765625 260.164062 L 106.765625 94.019531 L 89.058594 101.832031 L 89.058594 87.25 L 166.140625 53.914062 L 168.746094 52.875 L 171.351562 53.914062 L 248.953125 87.25 L 248.953125 101.832031 Z M 230.726562 94.019531 " fill-opacity="1" fill-rule="nonzero"/></g><g fill="#ffffff" fill-opacity="1"><g transform="translate(93.543309, 322.007938)"><g><path d="M 26.71875 -25.84375 C 29.882812 -24.71875 31.46875 -22.140625 31.46875 -18.109375 L 31.46875 -9.640625 C 31.46875 -3.210938 28.445312 0 22.40625 0 L 3.65625 0 L 3.65625 -47.234375 L 21.828125 -47.234375 C 27.859375 -47.234375 30.875 -44.019531 30.875 -37.59375 L 30.875 -33.28125 C 30.875 -29.394531 29.488281 -26.914062 26.71875 -25.84375 Z M 19.265625 -40.296875 L 13.875 -40.296875 L 13.875 -27.671875 L 19.265625 -27.671875 C 19.660156 -27.671875 19.988281 -27.816406 20.25 -28.109375 C 20.519531 -28.398438 20.65625 -28.738281 20.65625 -29.125 L 20.65625 -38.84375 C 20.65625 -39.226562 20.519531 -39.566406 20.25 -39.859375 C 19.988281 -40.148438 19.660156 -40.296875 19.265625 -40.296875 Z M 21.25 -8.46875 L 21.25 -19.046875 C 21.25 -19.441406 21.113281 -19.785156 20.84375 -20.078125 C 20.570312 -20.367188 20.242188 -20.515625 19.859375 -20.515625 L 13.875 -20.515625 L 13.875 -7.015625 L 19.859375 -7.015625 C 20.242188 -7.015625 20.570312 -7.160156 20.84375 -7.453125 C 21.113281 -7.742188 21.25 -8.082031 21.25 -8.46875 Z M 21.25 -8.46875 "/></g></g></g><g fill="#ffffff" fill-opacity="1"><g transform="translate(136.027901, 322.007938)"><g><path d="M 22.40625 -47.96875 C 28.445312 -47.96875 31.46875 -44.753906 31.46875 -38.328125 L 31.46875 0 L 21.25 0 L 21.25 -15.84375 L 13.875 -15.84375 L 13.875 0 L 3.65625 0 L 3.65625 -38.328125 C 3.65625 -44.753906 6.671875 -47.96875 12.703125 -47.96875 Z M 13.875 -23.71875 L 21.25 -23.71875 L 21.25 -39.5625 C 21.25 -39.957031 21.113281 -40.300781 20.84375 -40.59375 C 20.570312 -40.882812 20.242188 -41.03125 19.859375 -41.03125 L 15.25 -41.03125 C 14.863281 -41.03125 14.535156 -40.882812 14.265625 -40.59375 C 14.003906 -40.300781 13.875 -39.957031 13.875 -39.5625 Z M 13.875 -23.71875 "/></g></g></g><g fill="#ffffff" fill-opacity="1"><g transform="translate(179.096461, 322.007938)"><g><path d="M 22.40625 -47.234375 C 28.445312 -47.234375 31.46875 -44.019531 31.46875 -37.59375 L 31.46875 -9.640625 C 31.46875 -3.210938 28.445312 0 22.40625 0 L 3.65625 0 L 3.65625 -47.234375 Z M 21.25 -8.46875 L 21.25 -38.84375 C 21.25 -39.226562 21.113281 -39.566406 20.84375 -39.859375 C 20.570312 -40.148438 20.242188 -40.296875 19.859375 -40.296875 L 13.875 -40.296875 L 13.875 -7.015625 L 19.859375 -7.015625 C 20.242188 -7.015625 20.570312 -7.160156 20.84375 -7.453125 C 21.113281 -7.742188 21.25 -8.082031 21.25 -8.46875 Z M 21.25 -8.46875 "/></g></g></g><g fill="#ffffff" fill-opacity="1"><g transform="translate(222.165027, 322.007938)"><g><path d="M 13.875 -19.34375 L 13.875 0 L 3.65625 0 L 3.65625 -47.234375 L 21.828125 -47.234375 C 27.859375 -47.234375 30.875 -44.019531 30.875 -37.59375 L 30.875 -32.125 C 30.875 -28.226562 29.488281 -25.742188 26.71875 -24.671875 C 29.15625 -23.796875 30.375 -21.800781 30.375 -18.6875 L 30.375 0 L 20.140625 0 L 20.140625 -17.890625 C 20.140625 -18.859375 19.679688 -19.34375 18.765625 -19.34375 Z M 13.875 -40.296875 L 13.875 -26.5 L 19.265625 -26.5 C 19.660156 -26.5 19.988281 -26.644531 20.25 -26.9375 C 20.519531 -27.226562 20.65625 -27.566406 20.65625 -27.953125 L 20.65625 -38.84375 C 20.65625 -39.226562 20.519531 -39.566406 20.25 -39.859375 C 19.988281 -40.148438 19.660156 -40.296875 19.265625 -40.296875 Z M 13.875 -40.296875 "/></g></g></g><g fill="#ffffff" fill-opacity="1"><g transform="translate(263.627679, 322.007938)"><g><path d="M 13.875 -47.234375 L 13.875 0 L 3.65625 0 L 3.65625 -47.234375 Z M 13.875 -47.234375 "/></g></g></g><g fill="#ffffff" fill-opacity="1"><g transform="translate(125.265273, 350.299986)"><g><path d="M 6.40625 -2.328125 L 6.40625 -4.53125 L 9.328125 -4.53125 L 9.328125 -2.6875 C 9.328125 -0.75 8.414062 0.21875 6.59375 0.21875 L 3.828125 0.21875 C 2.003906 0.21875 1.09375 -0.75 1.09375 -2.6875 L 1.09375 -11.546875 C 1.09375 -13.484375 2.003906 -14.453125 3.828125 -14.453125 L 6.59375 -14.453125 C 8.414062 -14.453125 9.328125 -13.484375 9.328125 -11.546875 L 9.328125 -10.203125 L 6.40625 -10.203125 L 6.40625 -11.921875 C 6.40625 -12.035156 6.363281 -12.132812 6.28125 -12.21875 C 6.195312 -12.3125 6.097656 -12.359375 5.984375 -12.359375 L 4.59375 -12.359375 C 4.476562 -12.359375 4.378906 -12.3125 4.296875 -12.21875 C 4.222656 -12.132812 4.1875 -12.035156 4.1875 -11.921875 L 4.1875 -2.328125 C 4.1875 -2.210938 4.222656 -2.109375 4.296875 -2.015625 C 4.378906 -1.929688 4.476562 -1.890625 4.59375 -1.890625 L 5.984375 -1.890625 C 6.097656 -1.890625 6.195312 -1.929688 6.28125 -2.015625 C 6.363281 -2.109375 6.40625 -2.210938 6.40625 -2.328125 Z M 6.40625 -2.328125 "/></g></g></g><g fill="#ffffff" fill-opacity="1"><g transform="translate(135.339472, 350.299986)"><g><path d="M 9.484375 -11.546875 L 9.484375 -2.6875 C 9.484375 -0.75 8.570312 0.21875 6.75 0.21875 L 3.828125 0.21875 C 2.003906 0.21875 1.09375 -0.75 1.09375 -2.6875 L 1.09375 -11.546875 C 1.09375 -13.484375 2.003906 -14.453125 3.828125 -14.453125 L 6.75 -14.453125 C 8.570312 -14.453125 9.484375 -13.484375 9.484375 -11.546875 Z M 6.40625 -2.328125 L 6.40625 -11.921875 C 6.40625 -12.035156 6.363281 -12.132812 6.28125 -12.21875 C 6.195312 -12.3125 6.097656 -12.359375 5.984375 -12.359375 L 4.59375 -12.359375 C 4.476562 -12.359375 4.378906 -12.3125 4.296875 -12.21875 C 4.222656 -12.132812 4.1875 -12.035156 4.1875 -11.921875 L 4.1875 -2.328125 C 4.1875 -2.210938 4.222656 -2.109375 4.296875 -2.015625 C 4.378906 -1.929688 4.476562 -1.890625 4.59375 -1.890625 L 5.984375 -1.890625 C 6.097656 -1.890625 6.195312 -1.929688 6.28125 -2.015625 C 6.363281 -2.109375 6.40625 -2.210938 6.40625 -2.328125 Z M 6.40625 -2.328125 "/></g></g></g><g fill="#ffffff" fill-opacity="1"><g transform="translate(145.985579, 350.299986)"><g><path d="M 9.265625 0 L 6.1875 0 L 6.1875 -11.8125 C 6.1875 -11.925781 6.144531 -12.023438 6.0625 -12.109375 C 5.976562 -12.203125 5.878906 -12.25 5.765625 -12.25 L 4.578125 -12.25 C 4.460938 -12.25 4.363281 -12.203125 4.28125 -12.109375 C 4.195312 -12.023438 4.15625 -11.925781 4.15625 -11.8125 L 4.15625 0 L 1.078125 0 L 1.078125 -11.546875 C 1.078125 -13.484375 1.988281 -14.453125 3.8125 -14.453125 L 6.53125 -14.453125 C 8.351562 -14.453125 9.265625 -13.484375 9.265625 -11.546875 Z M 9.265625 0 "/></g></g></g><g fill="#ffffff" fill-opacity="1"><g transform="translate(156.213758, 350.299986)"><g><path d="M 9 -10.5 L 6.078125 -10.5 L 6.078125 -11.609375 C 6.078125 -11.734375 6.035156 -11.835938 5.953125 -11.921875 C 5.867188 -12.015625 5.769531 -12.0625 5.65625 -12.0625 L 4.4375 -12.0625 C 4.320312 -12.0625 4.222656 -12.015625 4.140625 -11.921875 C 4.066406 -11.835938 4.03125 -11.734375 4.03125 -11.609375 L 4.03125 -9.09375 C 4.03125 -8.96875 4.066406 -8.859375 4.140625 -8.765625 C 4.222656 -8.679688 4.320312 -8.640625 4.4375 -8.640625 L 6.421875 -8.640625 C 8.242188 -8.617188 9.15625 -7.648438 9.15625 -5.734375 L 9.15625 -2.6875 C 9.15625 -0.75 8.242188 0.21875 6.421875 0.21875 L 3.828125 0.21875 C 2.003906 0.21875 1.09375 -0.75 1.09375 -2.6875 L 1.09375 -4.15625 L 4.03125 -4.15625 L 4.03125 -2.578125 C 4.03125 -2.453125 4.066406 -2.347656 4.140625 -2.265625 C 4.222656 -2.179688 4.320312 -2.140625 4.4375 -2.140625 L 5.8125 -2.140625 C 5.925781 -2.140625 6.019531 -2.179688 6.09375 -2.265625 C 6.175781 -2.347656 6.21875 -2.453125 6.21875 -2.578125 L 6.21875 -5.375 C 6.21875 -5.488281 6.175781 -5.585938 6.09375 -5.671875 C 6.019531 -5.765625 5.925781 -5.8125 5.8125 -5.8125 L 3.828125 -5.8125 C 2.003906 -5.8125 1.09375 -6.78125 1.09375 -8.71875 L 1.09375 -11.546875 C 1.09375 -13.484375 2.003906 -14.453125 3.828125 -14.453125 L 6.265625 -14.453125 C 8.085938 -14.453125 9 -13.484375 9 -11.546875 Z M 9 -10.5 "/></g></g></g><g fill="#ffffff" fill-opacity="1"><g transform="translate(166.287957, 350.299986)"><g><path d="M 0.28125 -11.609375 L 0.28125 -14.234375 L 7.984375 -14.234375 L 7.984375 -11.609375 L 5.671875 -11.609375 L 5.671875 0 L 2.59375 0 L 2.59375 -11.609375 Z M 0.28125 -11.609375 "/></g></g></g><g fill="#ffffff" fill-opacity="1"><g transform="translate(174.580482, 350.299986)"><g><path d="M 4.1875 -5.828125 L 4.1875 0 L 1.09375 0 L 1.09375 -14.234375 L 6.578125 -14.234375 C 8.398438 -14.234375 9.3125 -13.265625 9.3125 -11.328125 L 9.3125 -9.6875 C 9.3125 -8.507812 8.890625 -7.757812 8.046875 -7.4375 C 8.785156 -7.175781 9.15625 -6.570312 9.15625 -5.625 L 9.15625 0 L 6.078125 0 L 6.078125 -5.390625 C 6.078125 -5.679688 5.9375 -5.828125 5.65625 -5.828125 Z M 4.1875 -12.140625 L 4.1875 -7.984375 L 5.8125 -7.984375 C 5.925781 -7.984375 6.019531 -8.023438 6.09375 -8.109375 C 6.175781 -8.203125 6.21875 -8.304688 6.21875 -8.421875 L 6.21875 -11.703125 C 6.21875 -11.816406 6.175781 -11.914062 6.09375 -12 C 6.019531 -12.09375 5.925781 -12.140625 5.8125 -12.140625 Z M 4.1875 -12.140625 "/></g></g></g><g fill="#ffffff" fill-opacity="1"><g transform="translate(184.764671, 350.299986)"><g><path d="M 6.1875 -14.234375 L 9.265625 -14.234375 L 9.265625 -2.6875 C 9.265625 -0.75 8.351562 0.21875 6.53125 0.21875 L 3.8125 0.21875 C 1.988281 0.21875 1.078125 -0.75 1.078125 -2.6875 L 1.078125 -14.234375 L 4.15625 -14.234375 L 4.15625 -2.421875 C 4.15625 -2.304688 4.195312 -2.203125 4.28125 -2.109375 C 4.363281 -2.023438 4.460938 -1.984375 4.578125 -1.984375 L 5.765625 -1.984375 C 5.878906 -1.984375 5.976562 -2.023438 6.0625 -2.109375 C 6.144531 -2.203125 6.1875 -2.304688 6.1875 -2.421875 Z M 6.1875 -14.234375 "/></g></g></g><g fill="#ffffff" fill-opacity="1"><g transform="translate(195.036841, 350.299986)"><g><path d="M 6.40625 -2.328125 L 6.40625 -4.53125 L 9.328125 -4.53125 L 9.328125 -2.6875 C 9.328125 -0.75 8.414062 0.21875 6.59375 0.21875 L 3.828125 0.21875 C 2.003906 0.21875 1.09375 -0.75 1.09375 -2.6875 L 1.09375 -11.546875 C 1.09375 -13.484375 2.003906 -14.453125 3.828125 -14.453125 L 6.59375 -14.453125 C 8.414062 -14.453125 9.328125 -13.484375 9.328125 -11.546875 L 9.328125 -10.203125 L 6.40625 -10.203125 L 6.40625 -11.921875 C 6.40625 -12.035156 6.363281 -12.132812 6.28125 -12.21875 C 6.195312 -12.3125 6.097656 -12.359375 5.984375 -12.359375 L 4.59375 -12.359375 C 4.476562 -12.359375 4.378906 -12.3125 4.296875 -12.21875 C 4.222656 -12.132812 4.1875 -12.035156 4.1875 -11.921875 L 4.1875 -2.328125 C 4.1875 -2.210938 4.222656 -2.109375 4.296875 -2.015625 C 4.378906 -1.929688 4.476562 -1.890625 4.59375 -1.890625 L 5.984375 -1.890625 C 6.097656 -1.890625 6.195312 -1.929688 6.28125 -2.015625 C 6.363281 -2.109375 6.40625 -2.210938 6.40625 -2.328125 Z M 6.40625 -2.328125 "/></g></g></g><g fill="#ffffff" fill-opacity="1"><g transform="translate(205.11104, 350.299986)"><g><path d="M 0.28125 -11.609375 L 0.28125 -14.234375 L 7.984375 -14.234375 L 7.984375 -11.609375 L 5.671875 -11.609375 L 5.671875 0 L 2.59375 0 L 2.59375 -11.609375 Z M 0.28125 -11.609375 "/></g></g></g><g fill="#ffffff" fill-opacity="1"><g transform="translate(213.403566, 350.299986)"><g><path d="M 4.1875 -14.234375 L 4.1875 0 L 1.09375 0 L 1.09375 -14.234375 Z M 4.1875 -14.234375 "/></g></g></g><g fill="#ffffff" fill-opacity="1"><g transform="translate(218.770604, 350.299986)"><g><path d="M 9.484375 -11.546875 L 9.484375 -2.6875 C 9.484375 -0.75 8.570312 0.21875 6.75 0.21875 L 3.828125 0.21875 C 2.003906 0.21875 1.09375 -0.75 1.09375 -2.6875 L 1.09375 -11.546875 C 1.09375 -13.484375 2.003906 -14.453125 3.828125 -14.453125 L 6.75 -14.453125 C 8.570312 -14.453125 9.484375 -13.484375 9.484375 -11.546875 Z M 6.40625 -2.328125 L 6.40625 -11.921875 C 6.40625 -12.035156 6.363281 -12.132812 6.28125 -12.21875 C 6.195312 -12.3125 6.097656 -12.359375 5.984375 -12.359375 L 4.59375 -12.359375 C 4.476562 -12.359375 4.378906 -12.3125 4.296875 -12.21875 C 4.222656 -12.132812 4.1875 -12.035156 4.1875 -11.921875 L 4.1875 -2.328125 C 4.1875 -2.210938 4.222656 -2.109375 4.296875 -2.015625 C 4.378906 -1.929688 4.476562 -1.890625 4.59375 -1.890625 L 5.984375 -1.890625 C 6.097656 -1.890625 6.195312 -1.929688 6.28125 -2.015625 C 6.363281 -2.109375 6.40625 -2.210938 6.40625 -2.328125 Z M 6.40625 -2.328125 "/></g></g></g><g fill="#ffffff" fill-opacity="1"><g transform="translate(229.41671, 350.299986)"><g><path d="M 9.265625 0 L 6.1875 0 L 6.1875 -11.8125 C 6.1875 -11.925781 6.144531 -12.023438 6.0625 -12.109375 C 5.976562 -12.203125 5.878906 -12.25 5.765625 -12.25 L 4.578125 -12.25 C 4.460938 -12.25 4.363281 -12.203125 4.28125 -12.109375 C 4.195312 -12.023438 4.15625 -11.925781 4.15625 -11.8125 L 4.15625 0 L 1.078125 0 L 1.078125 -11.546875 C 1.078125 -13.484375 1.988281 -14.453125 3.8125 -14.453125 L 6.53125 -14.453125 C 8.351562 -14.453125 9.265625 -13.484375 9.265625 -11.546875 Z M 9.265625 0 "/></g></g></g><g fill="#ffffff" fill-opacity="1"><g transform="translate(239.644889, 350.299986)"><g><path d="M 9 -10.5 L 6.078125 -10.5 L 6.078125 -11.609375 C 6.078125 -11.734375 6.035156 -11.835938 5.953125 -11.921875 C 5.867188 -12.015625 5.769531 -12.0625 5.65625 -12.0625 L 4.4375 -12.0625 C 4.320312 -12.0625 4.222656 -12.015625 4.140625 -11.921875 C 4.066406 -11.835938 4.03125 -11.734375 4.03125 -11.609375 L 4.03125 -9.09375 C 4.03125 -8.96875 4.066406 -8.859375 4.140625 -8.765625 C 4.222656 -8.679688 4.320312 -8.640625 4.4375 -8.640625 L 6.421875 -8.640625 C 8.242188 -8.617188 9.15625 -7.648438 9.15625 -5.734375 L 9.15625 -2.6875 C 9.15625 -0.75 8.242188 0.21875 6.421875 0.21875 L 3.828125 0.21875 C 2.003906 0.21875 1.09375 -0.75 1.09375 -2.6875 L 1.09375 -4.15625 L 4.03125 -4.15625 L 4.03125 -2.578125 C 4.03125 -2.453125 4.066406 -2.347656 4.140625 -2.265625 C 4.222656 -2.179688 4.320312 -2.140625 4.4375 -2.140625 L 5.8125 -2.140625 C 5.925781 -2.140625 6.019531 -2.179688 6.09375 -2.265625 C 6.175781 -2.347656 6.21875 -2.453125 6.21875 -2.578125 L 6.21875 -5.375 C 6.21875 -5.488281 6.175781 -5.585938 6.09375 -5.671875 C 6.019531 -5.765625 5.925781 -5.8125 5.8125 -5.8125 L 3.828125 -5.8125 C 2.003906 -5.8125 1.09375 -6.78125 1.09375 -8.71875 L 1.09375 -11.546875 C 1.09375 -13.484375 2.003906 -14.453125 3.828125 -14.453125 L 6.265625 -14.453125 C 8.085938 -14.453125 9 -13.484375 9 -11.546875 Z M 9 -10.5 "/></g></g></g></svg>